<?xml version="1.0" encoding="iso-8859-1"?>
<!-- Generator: Adobe Illustrator 19.0.0, SVG Export Plug-In . SVG Version: 6.00 Build 0)  -->
<svg version="1.1" id="Capa_1" xmlns="http://www.w3.org/2000/svg" xmlns:xlink="http://www.w3.org/1999/xlink" x="0px" y="0px"
	 viewBox="0 0 512 512" style="enable-background:new 0 0 512 512;" xml:space="preserve">
<polygon style="fill:#57A4FF;" points="202.746,319.985 202.746,458.087 229.373,504.207 282.628,504.207 309.255,458.087 
	309.255,319.985 "/>
<rect x="227.998" y="275.812" style="fill:#FF3F62;" width="56.004" height="44.174"/>
<polygon style="fill:#FFE477;" points="295.655,7.793 216.346,7.793 216.346,92.492 236.138,126.772 236.138,275.815 
	275.863,275.815 275.863,126.772 295.655,92.492 "/>
<rect id="SVGCleanerId_0" x="439.055" y="238.209" style="fill:#57A4FF;" width="36.203" height="36.203"/>
<rect id="SVGCleanerId_1" x="35.023" y="238.209" style="fill:#57A4FF;" width="36.203" height="36.203"/>
<g>
	<path style="fill:#FF7956;" d="M295.655,81.065v11.426l-19.792,34.28v16.247c54.051,9.411,95.147,56.552,95.147,113.295
		c0,44.3-25.051,82.743-61.755,101.954v69.672c10.604-3.286,20.782-7.538,30.443-12.635l54.375,54.375l75.293-75.293l-54.374-54.374
		c5.099-9.667,9.353-19.849,12.64-30.457h76.874V203.073h-76.874c-3.287-10.609-7.541-20.791-12.64-30.457l54.374-54.374
		l-75.293-75.294l-54.375,54.375c-9.666-5.099-19.849-9.353-30.457-12.639C309.241,84.682,300.251,82.101,295.655,81.065z"/>
	<path style="fill:#FF7956;" d="M216.346,81.065v11.426l19.792,34.28v16.247c-54.051,9.411-95.147,56.552-95.147,113.295
		c0,44.3,25.05,82.743,61.755,101.954v69.715c-10.604-3.286-20.781-7.581-30.443-12.678l-54.375,54.375l-75.293-75.293
		l54.374-54.374c-5.099-9.667-9.353-19.849-12.64-30.457H7.496V203.073H84.37c3.287-10.609,7.541-20.791,12.64-30.457
		l-54.374-54.374l75.293-75.294l54.159,54.159c9.667-5.099,20.065-9.137,30.673-12.424C202.76,84.682,211.749,82.101,216.346,81.065
		z"/>
</g>
<g>
	<rect x="459.057" y="238.209" style="fill:#FF5023;" width="36.203" height="36.203"/>
	<rect x="55.024" y="238.209" style="fill:#FF5023;" width="36.203" height="36.203"/>
	<path style="fill:#FF5023;" d="M212.09,97.106c1.765-0.931,3.563-1.816,5.374-2.678l-1.118-1.937V81.065
		c-4.596,1.036-13.586,3.617-13.586,3.617c-0.783,0.243-1.563,0.498-2.344,0.749L212.09,97.106z"/>
	<path style="fill:#FF5023;" d="M84.37,203.073h40.003c3.287-10.609,7.541-20.791,12.64-30.457l-54.374-54.374l55.291-55.292
		l-20.002-20.002l-75.293,75.294l54.374,54.374C91.909,182.282,87.657,192.464,84.37,203.073z"/>
	<path style="fill:#FF5023;" d="M200.39,427.221c0.785,0.256,1.567,0.517,2.356,0.762v-3.118L200.39,427.221z"/>
	<path style="fill:#FF5023;" d="M82.638,394.386l54.374-54.374c-5.099-9.667-9.353-19.849-12.64-30.457H84.369
		c3.287,10.609,7.541,20.791,12.64,30.457l-54.374,54.374l75.293,75.294l20.002-20.002L82.638,394.386z"/>
	<rect x="7.496" y="203.076" style="fill:#FF5023;" width="40.003" height="106.479"/>
</g>
<g>
	<rect id="SVGCleanerId_0_1_" x="439.055" y="238.209" style="fill:#57A4FF;" width="36.203" height="36.203"/>
</g>
<g>
	<rect id="SVGCleanerId_1_1_" x="35.023" y="238.209" style="fill:#57A4FF;" width="36.203" height="36.203"/>
</g>
<polygon style="fill:#006DF0;" points="222.748,319.985 202.746,319.985 202.746,458.087 229.373,504.207 249.375,504.207 
	222.748,458.087 "/>
<rect x="227.998" y="275.812" style="fill:#C70024;" width="20.002" height="44.174"/>
<polygon style="fill:#FFD422;" points="236.348,92.492 236.348,7.793 216.346,7.793 216.346,92.492 236.138,126.772 
	236.138,275.815 256.139,275.815 256.139,126.772 "/>
<g>
	<rect x="439.055" y="238.209" style="fill:#006DF0;" width="20.002" height="36.203"/>
	<rect x="35.023" y="238.209" style="fill:#006DF0;" width="20.002" height="36.203"/>
</g>
<g>
	<path style="fill:#FF5023;" d="M349.258,358.268c36.704-19.212,61.755-57.655,61.755-101.955
		c0-56.744-41.095-103.883-95.147-113.295v-16.247l18.543-32.117c-8.072-3.925-16.474-7.279-25.168-9.972
		c0,0-8.99-2.582-13.586-3.617v11.426l-19.792,34.28v16.247c54.051,9.411,95.147,56.552,95.147,113.295
		c0,44.3-25.051,82.743-61.755,101.955v69.672c10.604-3.286,20.782-7.538,30.443-12.635l9.56,9.56V358.268z"/>
	<path style="fill:#FF5023;" d="M379.701,97.322l34.374-34.374l-20.002-20.002l-42.49,42.49
		C361.349,88.614,370.749,92.599,379.701,97.322z"/>
	<path style="fill:#FF5023;" d="M379.701,415.305c-8.953,4.723-18.353,8.709-28.119,11.884l42.49,42.49l20.002-20.002
		L379.701,415.305z"/>
</g>
<g>
	<rect x="261.591" y="53.955" style="fill:#1D1D1F;" width="15.001" height="14.334"/>
	<rect x="261.591" y="28.953" style="fill:#1D1D1F;" width="15.001" height="15.001"/>
	<rect x="235.219" y="53.955" style="fill:#1D1D1F;" width="15.001" height="14.334"/>
	<rect x="235.219" y="28.953" style="fill:#1D1D1F;" width="15.001" height="15.001"/>
</g>
<g>
	<rect x="265.501" y="360.118" style="fill:#FFFFFF;" width="15.001" height="15.001"/>
	<rect x="265.501" y="335.116" style="fill:#FFFFFF;" width="15.001" height="15.001"/>
	<rect x="265.501" y="385.12" style="fill:#FFFFFF;" width="15.001" height="68.934"/>
	<rect x="248.5" y="154.762" style="fill:#FFFFFF;" width="15.001" height="15.001"/>
	<rect x="248.5" y="179.764" style="fill:#FFFFFF;" width="15.001" height="68.934"/>
	<rect x="248.5" y="129.76" style="fill:#FFFFFF;" width="15.001" height="15.001"/>
</g>
<g>
	<rect x="235.169" y="84.99" style="fill:#1D1D1F;" width="41.654" height="15.001"/>
	<path style="fill:#1D1D1F;" d="M431.56,281.918h51.209v-51.209H431.56L431.56,281.918L431.56,281.918z M446.561,245.71h21.207
		v21.207h-21.207V245.71z"/>
	<path style="fill:#1D1D1F;" d="M78.736,230.709H27.527v51.209h51.209V230.709z M63.735,266.917H42.528V245.71h21.207V266.917z"/>
	<path style="fill:#1D1D1F;" d="M121.656,333.961c13.072,22.815,31.843,42.129,54.282,55.857l7.829-12.796
		c-42.402-25.941-67.717-71.067-67.717-120.709h-15.001C101.049,283.583,108.176,310.433,121.656,333.961z"/>
</g>
<g>
	<path style="fill:#FFFFFF;" d="M368.783,146.472c-3.672-3.722-7.577-7.303-11.605-10.641l-9.571,11.552
		c3.644,3.019,7.176,6.258,10.498,9.625L368.783,146.472z"/>
	<path style="fill:#FFFFFF;" d="M375.905,154.189l-11.358,9.8c22.119,25.633,34.3,58.422,34.299,92.325
		c0,21.92-4.876,42.925-14.492,62.434l13.454,6.634c10.644-21.59,16.039-44.827,16.039-69.068
		C413.847,218.813,400.372,182.544,375.905,154.189z"/>
	<path style="fill:#FFFFFF;" d="M328.142,133.829c4.096,2.369,8.118,4.974,11.953,7.742l8.778-12.165
		c-4.242-3.061-8.69-5.941-13.219-8.563L328.142,133.829z"/>
</g>
<g>
	
		<rect x="110.517" y="96.432" transform="matrix(-0.7071 0.7071 -0.7071 -0.7071 285.9738 120.5641)" style="fill:#1D1D1F;" width="15.001" height="46.153"/>
	
		<rect x="370.062" y="387.129" transform="matrix(0.7071 0.7071 -0.7071 0.7071 394.1925 -162.4068)" style="fill:#1D1D1F;" width="46.153" height="15.001"/>
	
		<rect x="421.007" y="109.841" transform="matrix(-0.7071 -0.7071 0.7071 -0.7071 653.4369 505.3449)" style="fill:#1D1D1F;" width="20.743" height="15.001"/>
	
		<rect x="404.169" y="90.129" transform="matrix(0.7071 0.7071 -0.7071 0.7071 189.6097 -262.4992)" style="fill:#1D1D1F;" width="15.001" height="15.001"/>
	
		<rect x="386.498" y="72.451" transform="matrix(0.7071 0.7071 -0.7071 0.7071 171.9334 -255.1815)" style="fill:#1D1D1F;" width="15.001" height="15.001"/>
	<path style="fill:#1D1D1F;" d="M512,317.055v-121.43l-14.911-0.05l-0.049,7.451H497v99.029h-74.866l-1.67,5.28
		c-3.101,10.001-7.171,19.821-12.111,29.172l-2.58,4.899l52.984,52.975l-47.294,47.304l10.571,10.57l0.08,0.079v-0.1l57.856-57.855
		l-55.824-55.824c3.42-6.971,6.421-14.201,8.931-21.502H512V317.055z"/>
	<path style="fill:#1D1D1F;" d="M394.072,459.066l-52.983-52.974l-4.891,2.58c-6.29,3.319-12.831,6.26-19.441,8.761v-54.724
		c18.411-10.531,33.873-25.752,44.704-44.014c5.479-9.251,9.711-19.172,12.581-29.502c2.97-10.65,4.47-21.712,4.47-32.883
		c0-14.251-2.431-28.212-7.211-41.493c-4.62-12.841-11.331-24.752-19.942-35.412c-8.531-10.571-18.681-19.603-30.162-26.822
		c-11.681-7.361-24.411-12.641-37.833-15.701v-8.101l19.782-34.264l0.01-3.75c1.96,0.54,3.511,0.98,3.94,1.101
		c9.98,3.1,19.772,7.171,29.102,12.091l4.86,2.56l0.03,0.021l52.983-52.984l64.686,64.686l-52.954,52.954l-0.03,0.029l2.58,4.891
		c4.94,9.36,9.011,19.182,12.111,29.182l1.64,5.28h59.984l0.051-15.001h-49.065c-2.51-7.302-5.51-14.541-8.931-21.502l55.824-55.834
		l-85.897-85.899l-55.824,55.824c-8.642-4.229-17.651-7.821-26.782-10.651l-0.16-0.05c-0.01,0-0.12-0.029-0.32-0.09
		c-2.907-0.823-5.551-1.551-7.839-2.159l0.008-74.877l-94.308-0.05v74.924c-2.261,0.603-4.883,1.328-7.821,2.162
		c-0.21,0.061-0.32,0.09-0.34,0.101l-0.15,0.039c-9.991,3.101-18.822,6.522-26.982,10.451l-55.624-55.624l-85.867,85.857l-0.04,0.04
		l55.834,55.823c-3.42,6.972-6.421,14.211-8.931,21.513H29.852l-0.05,15.001h60.055l1.68-5.28
		c3.1-10.011,7.171-19.822,12.111-29.182l2.56-4.86l0.01-0.03l-52.974-52.984l64.685-64.686l52.744,52.744l0.02,0.021l4.89-2.58
		c8.471-4.471,18.341-8.461,29.332-11.871l0.36-0.101c0.64-0.18,1.96-0.56,3.57-1v3.721l19.792,34.293v8.101
		c-13.421,3.061-26.152,8.341-37.833,15.701c-11.481,7.23-21.632,16.251-30.162,26.822c-8.611,10.66-15.321,22.571-19.942,35.412
		c-4.78,13.281-7.211,27.242-7.211,41.493c0,11.161,1.5,22.232,4.46,32.883c2.88,10.331,7.111,20.252,12.591,29.502
		c10.831,18.262,26.292,33.483,44.704,44.014v54.754c-6.551-2.48-13.091-5.44-19.442-8.791l-4.89-2.591l-52.984,52.984l-6.811-6.801
		l-10.571,10.572l-0.04,0.03l17.421,17.421l55.824-55.823c7.022,3.445,14.231,6.442,21.492,8.944v26.668l29.782,51.605l61.925,0.029
		l29.792-51.604l0.003-26.734c7.319-2.514,14.527-5.497,21.499-8.919l55.823,55.835l17.461-17.461l-10.61-10.611L394.072,459.066z
		 M363.509,256.31c0.009,35.826-17.629,68.764-46.754,88.691v-32.467l-25.252-0.01v-44.21h-8.142V152.332
		C330.32,164.573,363.527,206.955,363.509,256.31z M276.502,305.401v7.084h-41.003v-29.168h41.003v7.084h-20.502v15.001H276.502z
		 M148.492,256.31c-0.019-49.355,33.189-91.737,80.146-103.986v70.884l15.001,0.05V124.77l-19.792-34.293V15.291h64.305v75.186
		l-19.781,34.273l-0.011,24.532l0.009,0.002l-0.009,119.028H243.64v-30.102l-15.001-0.05v30.155h-8.141v44.18l-25.252-0.01v32.525
		C166.121,325.075,148.483,292.136,148.492,256.31z M278.292,496.709h-44.584l-23.462-40.633v-128.59h91.507v38.434h0.026
		l-0.005,14.95h-0.021v75.206l-3.151,5.458h-59.604v15.001h50.941L278.292,496.709z"/>
	<path style="fill:#1D1D1F;" d="M100.578,441.725l-0.06-0.08l-0.01,0.01l-47.264-47.274l52.974-52.975l-2.57-4.899
		c-4.94-9.352-9.011-19.172-12.111-29.172l-1.64-5.28H15.001l-0.1-106.429l-14.851-0.05L0,317.055h78.926
		c2.51,7.301,5.51,14.531,8.931,21.502l-55.794,55.794l-0.04,0.03l57.955,57.944l10.571-10.561L100.578,441.725z"/>
</g>
<g>
</g>
<g>
</g>
<g>
</g>
<g>
</g>
<g>
</g>
<g>
</g>
<g>
</g>
<g>
</g>
<g>
</g>
<g>
</g>
<g>
</g>
<g>
</g>
<g>
</g>
<g>
</g>
<g>
</g>
</svg>
